<?xml version="1.0" encoding="UTF-8" standalone="no"?>
<svg
   viewBox="0 0 750 750"
   x="0px"
   y="0px"
   version="1.1"
   id="svg15"
   sodipodi:docname="bell.svg"
   inkscape:version="1.2.2 (732a01da63, 2022-12-09)"
   xmlns:inkscape="http://www.inkscape.org/namespaces/inkscape"
   xmlns:sodipodi="http://sodipodi.sourceforge.net/DTD/sodipodi-0.dtd"
   xmlns="http://www.w3.org/2000/svg"
   xmlns:svg="http://www.w3.org/2000/svg">
  <defs
     id="defs19" />
  <sodipodi:namedview
     id="namedview17"
     pagecolor="#ffffff"
     bordercolor="#000000"
     borderopacity="0.25"
     inkscape:showpageshadow="2"
     inkscape:pageopacity="0.0"
     inkscape:pagecheckerboard="0"
     inkscape:deskcolor="#d1d1d1"
     showgrid="false"
     inkscape:zoom="0.54965767"
     inkscape:cx="-70.953253"
     inkscape:cy="385.69461"
     inkscape:window-width="2560"
     inkscape:window-height="1369"
     inkscape:window-x="1432"
     inkscape:window-y="1003"
     inkscape:window-maximized="1"
     inkscape:current-layer="svg15" />
  <path
     d="M533.06,478.11c-5.68-6.16-13.68-9.94-19.39-16.2-12.88-12.74-19.07-30.49-19.79-48.36-.4-20.82-.02-41.69-2.12-62.45-3.78-41.76-21.82-85.27-58.28-108.48-2.54-1.7-5.13-3.34-7.77-4.9-3.59-17.59-8.31-37.33-25.14-46.85-11.82-7.15-26.44-6.37-39.35-2.92-15.63,3.7-24.72,16.86-25.26,32.55-.01,4.91-.61,10.16-.43,15.26-.18,.09-.37,.17-.55,.26-19.83,10.95-38.37,25.89-51.39,44.56-12.23,18.6-15.07,41.15-17.78,62.76-3.97,32.44-8.34,65.63-25.35,94.24-9.42,16.85-25.55,31.57-25.89,52.06-.54,7.88,3.04,20.5,13.14,18.1,.92,.78,2.05,1.27,3.39,1.27,9.95,0,19.91-.06,29.86,.15,20.32,.84,40.57,2.76,60.83,4.47,.86,15.46,17.88,38,27.41,43.07,6.06,3.86,12.99,5.9,20.06,6.9,17.74,3.55,36.32-2.16,48.9-15.21,6.69-6.77,9.9-15.95,13.12-24.71,1.03-2.24,1.26-4.98,.86-7.67,15.88-1.05,31.75-2.53,47.62-3.83,17.53-1.51,67.19-6.49,53.3-34.05ZM357.96,221.71c1.62-5.42,9.44-5.91,14.18-7.24,17.46-3.36,25.1,2.32,29.48,13-1.57-.38-3.15-.7-4.75-.96-13.06-1.96-26.56-1.38-39.48,1.59,.11-2.14,.27-4.27,.57-6.4Zm-75.29,148.67c4.05-30.72-4.35-69.99,25.7-89.84,16.39-10.97,35-18.75,54.76-20.51,14.06-1.09,28.41-1.67,42.13,2.17,24.07,7.81,46.61,20.98,52.62,47.37,5.19,17.68,6.15,36.09,7.36,54.36,2.39,28.7,4.57,54.78,14.76,77.58-34.02,1.54-68.08-1.75-102.12-1.19-29.78,1.53-59.59,.65-89.37-.6-7.77-.35-15.56-.61-23.35-.5,9.27-21.82,14.57-45.37,17.5-68.84Zm123.12,156.68c-6.99,6.39-16.29,10.29-25.84,9.36-9.2-.96-19.16-2.47-25.72-9.64-3.26-3.48-6.22-7.27-8.65-11.36,8.73,.57,17.46,1.02,26.21,1.22,13.12,.85,26.21,.87,39.29,.42-1.26,3.65-2.53,7.32-5.29,10Zm80.4-41.49c-19.28-.06-38.55-.39-57.82-.89-52.88-1.11-105.59,4.01-158.3,7.28-11.41,.43-22.81,.44-34.22,.43,1.58-9.8,9.77-17.23,14.7-25.58,1.82,.65,3.84,.88,5.85,.84,8.76,.42,17.53,.42,26.3,.79,56.82,1.63,113.5-2.56,170.14-6.29,7.07-.3,14.14-.49,21.21-.55,4.24-.52,11.81,.4,17.3-.8,6.52,8.67,14.86,16.74,25.62,24.15-10.12,2.07-20.52,.63-30.77,.61Z"
     id="path9" />
</svg>
