<?xml version="1.0" encoding="UTF-8" standalone="no"?>
<svg
   viewBox="0 0 750 750"
   x="0px"
   y="0px"
   version="1.1"
   id="svg15"
   sodipodi:docname="bell-on.svg"
   inkscape:version="1.2.2 (732a01da63, 2022-12-09)"
   xmlns:inkscape="http://www.inkscape.org/namespaces/inkscape"
   xmlns:sodipodi="http://sodipodi.sourceforge.net/DTD/sodipodi-0.dtd"
   xmlns="http://www.w3.org/2000/svg"
   xmlns:svg="http://www.w3.org/2000/svg">
  <defs
     id="defs19" />
  <sodipodi:namedview
     id="namedview17"
     pagecolor="#ffffff"
     bordercolor="#000000"
     borderopacity="0.25"
     inkscape:showpageshadow="2"
     inkscape:pageopacity="0.0"
     inkscape:pagecheckerboard="0"
     inkscape:deskcolor="#d1d1d1"
     showgrid="false"
     inkscape:zoom="0.54965767"
     inkscape:cx="303.82547"
     inkscape:cy="243.7881"
     inkscape:window-width="2560"
     inkscape:window-height="1369"
     inkscape:window-x="1432"
     inkscape:window-y="1003"
     inkscape:window-maximized="1"
     inkscape:current-layer="svg15" />
  <path
     d="m 533.06,478.11 c -5.68,-6.16 -13.68,-9.94 -19.39,-16.2 -12.88,-12.74 -19.07,-30.49 -19.79,-48.36 -0.4,-20.82 -0.02,-41.69 -2.12,-62.45 -3.78,-41.76 -21.82,-85.27 -58.28,-108.48 -2.54,-1.7 -5.13,-3.34 -7.77,-4.9 -3.59,-17.59 -8.31,-37.33 -25.14,-46.85 -11.82,-7.15 -26.44,-6.37 -39.35,-2.92 -15.63,3.7 -24.72,16.86 -25.26,32.55 -0.01,4.91 -0.61,10.16 -0.43,15.26 -0.18,0.09 -0.37,0.17 -0.55,0.26 -19.83,10.95 -38.37,25.89 -51.39,44.56 -12.23,18.6 -15.07,41.15 -17.78,62.76 -3.97,32.44 -8.34,65.63 -25.35,94.24 -9.42,16.85 -25.55,31.57 -25.89,52.06 -0.54,7.88 3.04,20.5 13.14,18.1 0.92,0.78 2.05,1.27 3.39,1.27 9.95,0 19.91,-0.06 29.86,0.15 20.32,0.84 40.57,2.76 60.83,4.47 0.86,15.46 17.88,38 27.41,43.07 6.06,3.86 12.99,5.9 20.06,6.9 17.74,3.55 36.32,-2.16 48.9,-15.21 6.69,-6.77 9.9,-15.95 13.12,-24.71 1.03,-2.24 1.26,-4.98 0.86,-7.67 15.88,-1.05 31.75,-2.53 47.62,-3.83 17.53,-1.51 67.19,-6.49 53.3,-34.05 z m -175.1,-256.4 c 1.62,-5.42 9.44,-5.91 14.18,-7.24 17.46,-3.36 25.1,2.32 29.48,13 -1.57,-0.38 -3.15,-0.7 -4.75,-0.96 -13.06,-1.96 -26.56,-1.38 -39.48,1.59 0.11,-2.14 0.27,-4.27 0.57,-6.4 z m 47.83,305.35 c -6.99,6.39 -16.29,10.29 -25.84,9.36 -9.2,-0.96 -19.16,-2.47 -25.72,-9.64 -3.26,-3.48 -6.22,-7.27 -8.65,-11.36 8.73,0.57 17.46,1.02 26.21,1.22 13.12,0.85 26.21,0.87 39.29,0.42 -1.26,3.65 -2.53,7.32 -5.29,10 z"
     id="path9"
     sodipodi:nodetypes="ccccccccccccccccscccccccccccccccccccccccc" />
  <path
     d="M490.33,269.72c4.55,6.33,9.07,12.71,12.5,19.73,11.17,22.07,10.72,47.45,11.45,71.58,.52,17.74,19.9,17.49,20.26,0-.25-11.47-.54-22.98-1.36-34.42-1.47-25.13-7.98-50.43-22.81-71.09-3.54-5.27-7.54-10.26-11.6-15.13-5.52-5.54-11.26-18.52-20.73-13.2-5.78,3.85-7.3,11.95-5.06,18.24,4.26,8.98,11.49,16.31,17.34,24.29Z"
     id="path11" />
  <path
     d="M233.77,382.31c10.35,3.43,15.44-10.61,12.21-18.53-1.44-4.58-2.38-9.29-3.42-13.97-1.63-13.79,.75-27.83,3.85-41.26,4.11-15.56,9.03-31.41,18.42-44.66,6.79-9.92,16.93-17.65,21.84-28.78,5.78-11.42-6.36-29.63-16.88-16.06-4.13,5.88-9.69,10.62-14.12,16.28-9.61,11.15-16.69,24.32-21.25,38.3-8.17,26.42-16.28,57.16-11.23,84.77,2.52,8.03,2.06,19.68,10.59,23.91Z"
     id="path13" />
</svg>
