<svg xmlns="http://www.w3.org/2000/svg" viewBox="0 0 750 750" x="0px" y="0px">
  <path
    d="M533.06,478.11c-5.68-6.16-13.68-9.94-19.39-16.2-12.88-12.74-19.07-30.49-19.79-48.36-.4-20.82-.02-41.69-2.12-62.45-3.78-41.76-21.82-85.27-58.28-108.48-2.54-1.7-5.13-3.34-7.77-4.9-3.59-17.59-8.31-37.33-25.14-46.85-11.82-7.15-26.44-6.37-39.35-2.92-15.63,3.7-24.72,16.86-25.26,32.55-.01,4.91-.61,10.16-.43,15.26-.18,.09-.37,.17-.55,.26-19.83,10.95-38.37,25.89-51.39,44.56-12.23,18.6-15.07,41.15-17.78,62.76-3.97,32.44-8.34,65.63-25.35,94.24-9.42,16.85-25.55,31.57-25.89,52.06-.54,7.88,3.04,20.5,13.14,18.1,.92,.78,2.05,1.27,3.39,1.27,9.95,0,19.91-.06,29.86,.15,20.32,.84,40.57,2.76,60.83,4.47,.86,15.46,17.88,38,27.41,43.07,6.06,3.86,12.99,5.9,20.06,6.9,17.74,3.55,36.32-2.16,48.9-15.21,6.69-6.77,9.9-15.95,13.12-24.71,1.03-2.24,1.26-4.98,.86-7.67,15.88-1.05,31.75-2.53,47.62-3.83,17.53-1.51,67.19-6.49,53.3-34.05ZM357.96,221.71c1.62-5.42,9.44-5.91,14.18-7.24,17.46-3.36,25.1,2.32,29.48,13-1.57-.38-3.15-.7-4.75-.96-13.06-1.96-26.56-1.38-39.48,1.59,.11-2.14,.27-4.27,.57-6.4Zm-75.29,148.67c4.05-30.72-4.35-69.99,25.7-89.84,16.39-10.97,35-18.75,54.76-20.51,14.06-1.09,28.41-1.67,42.13,2.17,24.07,7.81,46.61,20.98,52.62,47.37,5.19,17.68,6.15,36.09,7.36,54.36,2.39,28.7,4.57,54.78,14.76,77.58-34.02,1.54-68.08-1.75-102.12-1.19-29.78,1.53-59.59,.65-89.37-.6-7.77-.35-15.56-.61-23.35-.5,9.27-21.82,14.57-45.37,17.5-68.84Zm123.12,156.68c-6.99,6.39-16.29,10.29-25.84,9.36-9.2-.96-19.16-2.47-25.72-9.64-3.26-3.48-6.22-7.27-8.65-11.36,8.73,.57,17.46,1.02,26.21,1.22,13.12,.85,26.21,.87,39.29,.42-1.26,3.65-2.53,7.32-5.29,10Zm80.4-41.49c-19.28-.06-38.55-.39-57.82-.89-52.88-1.11-105.59,4.01-158.3,7.28-11.41,.43-22.81,.44-34.22,.43,1.58-9.8,9.77-17.23,14.7-25.58,1.82,.65,3.84,.88,5.85,.84,8.76,.42,17.53,.42,26.3,.79,56.82,1.63,113.5-2.56,170.14-6.29,7.07-.3,14.14-.49,21.21-.55,4.24-.52,11.81,.4,17.3-.8,6.52,8.67,14.86,16.74,25.62,24.15-10.12,2.07-20.52,.63-30.77,.61Z" />
  <path
    d="M490.33,269.72c4.55,6.33,9.07,12.71,12.5,19.73,11.17,22.07,10.72,47.45,11.45,71.58,.52,17.74,19.9,17.49,20.26,0-.25-11.47-.54-22.98-1.36-34.42-1.47-25.13-7.98-50.43-22.81-71.09-3.54-5.27-7.54-10.26-11.6-15.13-5.52-5.54-11.26-18.52-20.73-13.2-5.78,3.85-7.3,11.95-5.06,18.24,4.26,8.98,11.49,16.31,17.34,24.29Z" />
  <path
    d="M233.77,382.31c10.35,3.43,15.44-10.61,12.21-18.53-1.44-4.58-2.38-9.29-3.42-13.97-1.63-13.79,.75-27.83,3.85-41.26,4.11-15.56,9.03-31.41,18.42-44.66,6.79-9.92,16.93-17.65,21.84-28.78,5.78-11.42-6.36-29.63-16.88-16.06-4.13,5.88-9.69,10.62-14.12,16.28-9.61,11.15-16.69,24.32-21.25,38.3-8.17,26.42-16.28,57.16-11.23,84.77,2.52,8.03,2.06,19.68,10.59,23.91Z" />
</svg>