<svg xmlns="http://www.w3.org/2000/svg" data-name="Layer 1" viewBox="0 0 90 112.5" x="0px" y="0px"><title>Untitled-3</title><path d="M31.234,59.3a5.114,5.114,0,0,0-.519-4.653,9.594,9.594,0,0,1-.489-1.745c-1.55-4.408-2.345-9.029-3.821-13.457A10.769,10.769,0,0,0,25.053,36.3a6.282,6.282,0,0,1-.608-1.689,22.5,22.5,0,0,1,5.3-4.471c4.152-2.158,4.97-2.38,9.831-2.608q1.146-.054,2.3-.048a43.326,43.326,0,0,0,6.613-.666,41.644,41.644,0,0,1,4.33-.379,7.792,7.792,0,0,1,5.933,2.558,1.9,1.9,0,0,1,.541,2.1c-1.222,3.5-1.374,7.2-2.017,10.8a63.576,63.576,0,0,0-.56,8.236c-.077,1.68-.087,3.367-.033,5.048a3.2,3.2,0,0,1-1.13,2.635,1.942,1.942,0,0,1-.17.154c-2.964,2.08-6.037,3.886-9.778,4.166A25.56,25.56,0,0,1,33.69,60.394C32.924,60.076,32.175,59.719,31.234,59.3ZM57.559,30.346a4.8,4.8,0,0,0-3.7-2.24,15.5,15.5,0,0,0-5.025.168,51.794,51.794,0,0,1-5.675.769,53.374,53.374,0,0,0-8.411.863,14.806,14.806,0,0,0-4.53,1.57,13.317,13.317,0,0,0-2.37,1.788c-.784.725-.629,1.515.335,2.02a4.9,4.9,0,0,0,1.294.419c.974.2,1.953.386,2.938.514,1.665.217,3.333.5,5.006.553a45.823,45.823,0,0,0,15.788-2.5c.653-.213,1.281-.5,1.919-.758A3.545,3.545,0,0,0,57.559,30.346Zm-4.011,10.19a13.584,13.584,0,0,0-1.615.148,26.478,26.478,0,0,1-2.654.684A3.043,3.043,0,0,0,46.508,43.7c-.249.8-.6,1.568-.849,2.366a3.892,3.892,0,0,0-.013,1,21.213,21.213,0,0,0,5.4-1,1.524,1.524,0,0,0,.84-.716A18.387,18.387,0,0,0,53.547,40.536Zm-2.9,7.679c-1.129.152-1.944.3-2.766.367-3.46.295-3.174.154-4.578,3.737a7.384,7.384,0,0,0-.294.866.829.829,0,0,0,.8,1.121,12.011,12.011,0,0,0,4.5-.691,1.4,1.4,0,0,0,.676-.576A11.766,11.766,0,0,0,50.643,48.215ZM37.922,46.938c1.579.645,3.03.332,4.458.353a1.866,1.866,0,0,0,1.99-1.511c.2-.655.513-1.274.707-1.93a8.581,8.581,0,0,0,.176-1.355,16.339,16.339,0,0,0-5.312-.065,1.26,1.26,0,0,0-.837.667A10.02,10.02,0,0,0,37.922,46.938Zm9.942,9.08c-.057-.05-.116-.147-.17-.145-1.729.084-3.459.151-5.183.3a1.374,1.374,0,0,0-.918.576,4.549,4.549,0,0,0-.785,3.545,16.048,16.048,0,0,0,1.769.255c4.083.142,4.511.083,5.339-4.307A.589.589,0,0,0,47.863,56.018Zm-12.226-2.59c.393.314.5.477.629.49.982.1,1.972.132,2.948.266a1.989,1.989,0,0,0,2.462-1.466c.264-.793.656-1.543.929-2.334a4.884,4.884,0,0,0,.084-1.167,35.89,35.89,0,0,0-4.682-.047,1.388,1.388,0,0,0-1.388.989C36.265,51.233,35.965,52.325,35.637,53.428Zm1.863-10.7c-.368-.185-.5-.305-.637-.312-.839-.041-1.679-.053-2.519-.081-2.152-.072-2.32.127-2.848,2.394a2.636,2.636,0,0,0,.1,2.108,7.926,7.926,0,0,0,3.727.419,1.1,1.1,0,0,0,1.064-.747A18.818,18.818,0,0,0,37.5,42.723ZM48.448,59.911a34.208,34.208,0,0,0,5.163-2.423c1.268-.743,1.491-1.955,1.338-3.447a18.034,18.034,0,0,0-4.482,1.207,2.127,2.127,0,0,0-1.012,1.139C49.08,57.368,48.863,58.409,48.448,59.911ZM55.466,46.72a3.985,3.985,0,0,0-3.8,3.373c-.138.587-.427,1.136-.616,1.713-.111.337-.358.7.122,1.1a8.977,8.977,0,0,0,2.981-.758,1.656,1.656,0,0,0,1.062-1.359A21.808,21.808,0,0,0,55.466,46.72ZM39.844,56.347a8.286,8.286,0,0,0-3.463-.657c-1.27-.087-1.642.252-1.787,1.473-.132,1.1.073,1.557,1.064,1.976a16.942,16.942,0,0,0,2.36.782.944.944,0,0,0,1.119-.577A6.88,6.88,0,0,0,39.844,56.347Zm7.54-18.89c-.967.046-1.751.328-2.555.43-.828.1-1.661.173-2.491.269-1.555.179-1.635.277-1.88,2.3,1.965.609,3.853.063,5.721-.33A6.113,6.113,0,0,0,47.383,37.457ZM55.3,35.333a7.007,7.007,0,0,0-1.152.144c-.871.265-1.709.667-2.593.855-1.726.367-2.361,1.667-3,3.045.244.129.391.276.493.25,1.615-.411,3.232-.818,4.828-1.295a1.676,1.676,0,0,0,.814-.736A3.766,3.766,0,0,0,55.3,35.333ZM35.144,49.421a9.106,9.106,0,0,0-4.372-.411,3.483,3.483,0,0,0,.285,2.3c.529,1.69.816,1.837,2.916,1.667A5.439,5.439,0,0,0,35.144,49.421ZM27.361,36.9c.37,2.289.452,2.406,2.027,2.911a8.821,8.821,0,0,0,1.316.327,1.152,1.152,0,0,0,1.319-.97,1.108,1.108,0,0,0-.713-1.455A25.878,25.878,0,0,0,27.361,36.9Zm6.346,3.722a13.522,13.522,0,0,0,4.029-.044.991.991,0,0,0,.752-1.028.842.842,0,0,0-.79-.946c-.6-.1-1.218-.133-1.825-.214-.534-.072-1.106-.215-1.536.194A1.965,1.965,0,0,0,33.706,40.619ZM53.6,45.01c1.024-.1,1.729-.4,1.948-1.2a21.714,21.714,0,0,0,.468-2.923c.045-.338.007-.687.007-1.528A18.192,18.192,0,0,0,53.6,45.01ZM28.69,41.573c.186,2.11.307,2.522,1.112,3.8.255-1.1.483-2.039.683-2.986.025-.121-.095-.272-.19-.52Zm4.465,14.491c.079-.108.217-.215.219-.325s-.134-.22-.209-.33l-.322.43Z"/></svg>