<svg xmlns="http://www.w3.org/2000/svg" viewBox="0 0 750 937.5" x="0px" y="0px"><path d="M540.65,243.21c-.98-3.74-1.7-7.54-2.69-11.28-6.78-33.26-36.41-35.75-64.8-32.71-11.96,.73-23.88,1.91-35.82,2.99,.72-.95,1.35-2.1,1.81-3.48,2.28-7.83-1.49-15.93-2.71-23.69-2.25-10.1-6.64-23.27-18.5-24.76-24.28-.52-48.69,.3-72.89,2.42-6.29,.62-12.77,1.5-18.6,4.09-11.91,4.54-18.58,16.61-17.58,29.13,.3,5.52,.32,11.2,.89,16.78-7.3,.27-14.6,.86-21.89,1.95-24.22,3.62-60.48-4.34-74.75,20.82-4.33,10.09-6.18,21.07-7.79,31.87-.91,6.95-1.43,16.05,5.49,20.23,2.3,1.33,4.47,1.52,6.41,.93,2.55,3.11,6.75,3.34,10.43,2.52,2.68-.18,5.36-.36,8.04-.53-.03,.42-.06,.84-.08,1.26-1.89,55.6,2.52,111.31,8.72,166.54,1.09,12.53,2.68,25.01,3.53,37.55,.8,21.62-.04,43.36,2.41,64.9,.38,9,1.2,20.03,8.89,26.33,20.05,15.34,51.99,9.08,75.87,10,29-1.02,57.36,4.87,85.88,9.06,19.77,2.35,39.65,3.5,59.56,3.59,27.78,3.24,26.3-38.15,27.57-57.02,.69-22.52,.31-45.11,3.1-67.51,4.67-35.93,12.29-71.47,15.68-107.56,2.4-29.74,.33-59.56,.21-89.34,2.2-.88,3.94-2.6,5.21-4.7,5.98,.79,12.27-4.71,12.83-12.73,.9-6.32-2.57-11.83-4.41-17.64Zm-124.33-66.55c3.69,6.16,4.5,13.56,5.96,20.48,.51,2.62,1.7,4.66,3.24,6.08-7.25,.58-14.5,1.05-21.77,1.28-24.16,1.49-48.34-1.08-72.48-1.81-.58-5.8-.84-11.65-.86-17.49,17.36-9.66,64.9-8.74,85.91-8.55Zm85.91,199.84c-1.68,27.48-5,54.86-5.67,82.39-.47,35.6,1.87,72.96-12.61,106.36-36.72-3.15-73.58-1.8-110.37-3.07-15.38-.82-30.66-2.81-45.94-4.7-18.51-2.8-37.66-2.21-55.78-7.12-8.81-43.05-11.82-87-11.7-130.88-.06-22.61-3.54-45.04-3.31-67.67,.05-16.54-.44-33.07-.19-49.61,.06-7.32,.07-14.64,.38-21.95,.01-.35,.04-.7,.06-1.05,16.72-.9,33.45-1.62,50.17-2.28,14.96-.57,29.9,0,44.86-.05,29.04-.88,58.03-3.96,87.11-3.09,21.78,.42,43.38,3.47,65.1,4.91,.29,.01,.57,.02,.86,.03-.37,32.6-1.69,65.2-2.96,97.78Zm7.2-126.77c-16.84,.44-33.55,2.9-50.38,3.5-53.04,3.08-105.9-4.65-158.98-2.9-21.99,.19-44.04-.02-65.96,1.97-2.01,.27-4.1,.46-6.16,.76,.88-4.36,1.95-8.65,3.78-12.53,7.5-4.74,16.53-5.91,25.15-7.12,25.26-1.89,50.46-4.49,75.72-6.38,46.09-5.11,92.28-1.49,138.26,2.84,14.03,1.84,31.03-1.88,42.42,8.23,1.76,3.72,3.15,7.57,4.47,11.46-2.62,.03-5.42,.16-8.32,.16Z"/><path d="M319.55,492.9c-3.26-31.88-7.58-63.64-10.92-95.52-2.75-30.61-2.8-61.5-7.22-91.96-3.97-15.52-20.38-10.42-20.06,3.9,1.52,33.29,4.17,66.63,8.31,99.7,2.02,14.51,2.66,29.2,5.45,43.59,2.58,12.99,5.66,25.88,8.04,38.91,2.15,13.03,4.06,26.1,6.07,39.16,.39,2.55,1.29,5.06,3.31,6.77,6.23,5.28,12.81-3.52,11.42-9.67-1.78-11.6-3.31-23.2-4.4-34.89Z"/><path d="M367.31,292.05c-1.11,2.24-1.71,4.86-1.65,7.36,.23,9.74,.06,19.44-.41,29.18-.99,17.35-1.21,34.72-1.25,52.09-1.82,48.18,1.08,96.27,2.71,144.41,1.74,13.02,15.88,9.31,14.73-2.49-2.1-34.12,2.09-68.21,1.97-102.34-.19-21.52,1.23-43.02,1.99-64.52,.58-20.03,3.72-40.32,.37-60.24-1.77-10.18-13.73-13.55-18.46-3.45Z"/><path d="M446.9,303.71c-.96,4.57-1.18,9.22-1.41,13.88-4.15,59.89-17.49,118.61-27.83,177.62-1.81,10.03-3.38,20.11-5.59,30.06-.97,4.35,.37,10.37,4.97,12.18,11.57,3.88,11.04-21.03,13.66-28.36,1.57-7.41,3.41-14.75,5.47-22.04,13.62-45.2,20.67-92.17,28.27-138.68,1.86-13.51,2.48-27.14,2.54-40.76,.25-14.61-16.23-19.2-20.08-3.9Z"/><text x="0" y="765" fill="#000000" font-size="5px" font-weight="bold" font-family="'Helvetica Neue', Helvetica, Arial-Unicode, Arial, Sans-serif">Created by Reyda Dönmez</text><text x="0" y="770" fill="#000000" font-size="5px" font-weight="bold" font-family="'Helvetica Neue', Helvetica, Arial-Unicode, Arial, Sans-serif">from the Noun Project</text></svg>