<svg xmlns="http://www.w3.org/2000/svg" data-name="Layer 1" viewBox="0 0 90 90" x="0px" y="0px">
  <path
    d="M52.038,17.966c3.632,4.65,6.321,9.729,7.1,15.685.209,1.594.382,3.193.575,4.789a1.714,1.714,0,0,1-.361,1.511,2.43,2.43,0,0,0-.535,2.142,18.584,18.584,0,0,1,.21,2.514,70.135,70.135,0,0,0,.962,12.12c.593,4.787,1.45,9.53,2.3,14.274a20.278,20.278,0,0,0,.616,2.2c.2.659.458,1.3.611,1.971a1.246,1.246,0,0,1-.9,1.61c-.361.124-.739.2-1.111.291a103.63,103.63,0,0,1-14.223,2.555c-1.98.2-3.95.519-5.914.85a2.567,2.567,0,0,1-2.915-1.3A7.062,7.062,0,0,0,37.3,77.762c-1.545-1.481-3.061-3-4.7-4.369a6.52,6.52,0,0,1-2.375-4.551c-.4-3.885-.718-7.778-1.094-11.666-.656-6.781-1.162-13.58-2.468-20.284a27.056,27.056,0,0,1-.263-2.971c-.124-1.526-.192-3.058-.386-4.575a5.168,5.168,0,0,1,.7-3.53,15.83,15.83,0,0,1,7.826-6.8,1.187,1.187,0,0,0,.214-.082c2.06-1.267,4.32-1.285,6.644-1.193,3.061.121,6.128.075,9.192.11C51.033,17.86,51.485,17.922,52.038,17.966ZM55.817,68.74c-.164-.91-.26-1.585-.413-2.247-.189-.82-.441-1.625-.637-2.444a48.642,48.642,0,0,1-1.2-9.558c-.2-5.377-1.242-10.64-2.051-15.934a2.813,2.813,0,0,0-.988-2.1,103.413,103.413,0,0,0-12.985.5c-1.525.108-3.051.216-4.579.281-.994.043-1.993-.026-2.986.025a11.29,11.29,0,0,0-1.653.344,21.055,21.055,0,0,0,.01,2.119c.314,2.967.684,5.927,1,8.894.621,5.859,1.215,11.721,1.829,17.581a12.088,12.088,0,0,0,.271,1.582c.462,1.907,1.016,2.4,3.041,2.405,2.219.01,4.443-.037,6.658-.171,3.666-.221,7.328-.517,10.99-.814C53.263,69.119,54.392,68.925,55.817,68.74ZM50.1,34.119a7.122,7.122,0,0,0-.021-1.748,53.916,53.916,0,0,0-1.935-6.107,9.889,9.889,0,0,0-9.954-6.336c-4.457.315-7.677,2.712-9.955,6.458a4.827,4.827,0,0,0-.591,1.485,17.833,17.833,0,0,0,.31,7.263,10.6,10.6,0,0,0,1.672.282c2.29,0,4.583.014,6.87-.085,3.126-.136,6.247-.422,9.373-.536A18.844,18.844,0,0,0,50.1,34.119ZM33.619,71.937A8.058,8.058,0,0,0,34.406,73a54.262,54.262,0,0,1,4.223,3.855,5.028,5.028,0,0,0,4.918,1.7c.453-.068.9-.155,1.356-.221,1.661-.244,3.316-.578,4.987-.7a62.356,62.356,0,0,0,8.116-1.424,3.845,3.845,0,0,0,2.015-.787c.028-.177.073-.267.046-.32-.787-1.546-2.213-2.478-3.474-3.563a1.778,1.778,0,0,0-.862-.268,28.13,28.13,0,0,0-6.62-.264c-4.638.388-9.264,1-13.937.786A12.775,12.775,0,0,0,33.619,71.937Zm19.21-35.072a8.823,8.823,0,0,0-.048,1.255c.364,2.5.718,5,1.129,7.487a96,96,0,0,1,1.12,10.719,28.64,28.64,0,0,0,1.2,7.45,14.848,14.848,0,0,1,1.07,4.906,2.632,2.632,0,0,0,.919,2.032c.564.517,1.094,1.071,1.675,1.567a4,4,0,0,0,1,.381c-.341-2.805-.613-5.376-.974-7.934-.406-2.873-.975-5.725-1.327-8.6a79.168,79.168,0,0,1-.969-12.337,18.459,18.459,0,0,0-.164-2.518,5.339,5.339,0,0,0-.311-1.568,2.67,2.67,0,0,0-.936-1.229C55.233,37.9,54.171,37.489,52.829,36.865Zm5.163.129c-.142-1.08-.27-1.754-.313-2.432-.266-4.153-1.9-7.841-3.868-11.413a9.346,9.346,0,0,0-.785-1.129c-1.822-2.383-4.639-3.181-7.854-2.16a3.158,3.158,0,0,0,.532.7,11.541,11.541,0,0,1,4.306,6.591c.468,1.694.9,3.4,1.405,5.08a3.766,3.766,0,0,0,.835,1.824,34.07,34.07,0,0,0,3.988,2.661A5.653,5.653,0,0,0,57.991,36.994Z" />
</svg>