<svg xmlns="http://www.w3.org/2000/svg" data-name="Layer 1" viewBox="0 0 90 112.5" x="0px" y="0px"><title>Untitled-3</title><path d="M64.055,26.132c.418.316.913.65,1.359,1.039a1.279,1.279,0,0,1,.178,1.846,10.287,10.287,0,0,1-.954.986q-5.2,5.189-10.41,10.374c-1.032,1.025-2.115,2-3.135,3.035-3.332,3.384-6.463,6.947-9.47,10.624-1.646,2.013-3.4,3.938-5.093,5.913-.995,1.161-1.958,2.349-2.946,3.516q-2,2.364-4.021,4.713c-.5.581-1.04,1.129-1.485,1.747a2.887,2.887,0,0,1-1.685,1.011,31.743,31.743,0,0,0-9.849,5.255,20.4,20.4,0,0,0-2.706,3.1c-.147.174-.243.392-.392.564-.315.361-.685.639-1.193.4a1.137,1.137,0,0,1-.512-1.38,2.889,2.889,0,0,1,.757-1.118,6.99,6.99,0,0,0,2.632-4.653,16.747,16.747,0,0,1,1.394-3.625,9.057,9.057,0,0,0,1.024-3.016,3.98,3.98,0,0,1,.645-1.679,41.973,41.973,0,0,1,4.519-6.061c2-2.218,4.159-4.311,5.935-6.693,1.516-2.032,3.4-3.723,4.874-5.774.666-.925,1.548-1.691,2.295-2.561,2.341-2.727,4.626-5.5,7.011-8.191A40.231,40.231,0,0,1,46.457,32a77.265,77.265,0,0,0,9.673-9.77,2.761,2.761,0,0,1,.449-.52,4.484,4.484,0,0,1,1.484-.974c.769-.163.88.657,1.182,1.167a.766.766,0,0,0,1.318.206,8.318,8.318,0,0,0,.774-.844,1.436,1.436,0,0,0,.1-1.875c-.907-1.461-.878-2.105.117-3.281a20.044,20.044,0,0,1,2.26-2.282,2.707,2.707,0,0,1,2.514-.84,2.684,2.684,0,0,0,2.534-.695c.424-.327.809-.7,1.235-1.028a1.774,1.774,0,0,1,2.49.058,4.833,4.833,0,0,1,.49.482c1.306,1.4,2.622,2.789,3.911,4.2a1.494,1.494,0,0,1,0,2.4,1.861,1.861,0,0,1-.52.445,18.132,18.132,0,0,0-3.8,2.916,25.065,25.065,0,0,0-2.891,2.6c-.693.776-1.014.789-2.017.323-1.946-.9-2.358-.81-3.616.853C64.074,25.651,64.1,25.837,64.055,26.132ZM21.029,64.391c.041.092.053.188.107.228,1.522,1.135,3.039,2.277,4.579,3.388a1.137,1.137,0,0,0,1.648-.236,62.312,62.312,0,0,0,4.9-5.155c1.894-2.413,3.87-4.74,5.958-6.98.678-.728,1.368-1.451,1.981-2.233a88.537,88.537,0,0,1,6.413-7.5A26.878,26.878,0,0,0,48.745,43.5a20,20,0,0,1,3.4-3.4A26.582,26.582,0,0,0,54.719,37.5c.525-.556.99-1.169,1.521-1.718,1.968-2.032,3.953-4.048,5.928-6.073a4.275,4.275,0,0,0,.439-.529,1.067,1.067,0,0,0-.041-1.467,8.38,8.38,0,0,0-2.244-1.927,7.966,7.966,0,0,1-2.731-2.055c-.481.429-.894.746-1.245,1.121-.731.78-1.384,1.639-2.152,2.379-1.265,1.22-2.64,2.326-3.889,3.56a116.361,116.361,0,0,0-9.554,9.908c-3.2,4-6.723,7.74-10.1,11.595-1.463,1.668-2.936,3.327-4.382,5.01s-2.864,3.386-4.287,5.086A3.148,3.148,0,0,0,21.029,64.391Zm3.253,5.1c-1.147-1.46-2.389-2.671-4.46-2.835-1.246,1.625-1.507,3.673-2.469,5.388a3.643,3.643,0,0,0-.194,1.11A37.892,37.892,0,0,0,24.282,69.491ZM72.887,18.52a11.273,11.273,0,0,0,1.276-.983,1.32,1.32,0,0,0,.066-2.023A16.68,16.68,0,0,0,72.5,13.707a1.207,1.207,0,0,0-1.827-.06,7.625,7.625,0,0,0-1.021.9,1.173,1.173,0,0,0,0,1.808A11.014,11.014,0,0,0,72.887,18.52Z"/><path d="M59.539,29.987A16.235,16.235,0,0,0,58.17,31.37a73.117,73.117,0,0,1-9.02,9.142,27.08,27.08,0,0,0-2.523,2.962c-.674.82-1.219,1.066-1.687.718a1.415,1.415,0,0,1-.236-1.891,56.281,56.281,0,0,1,2.7-5.056A38.579,38.579,0,0,1,49.944,34c1.693-2.173,3.37-4.358,5.066-6.529a11.646,11.646,0,0,1,1.345-1.552,1.808,1.808,0,0,1,2.337-.169,23.289,23.289,0,0,1,2.176,1.678,1.038,1.038,0,0,1-.012,1.457C60.418,29.305,59.922,29.669,59.539,29.987Zm-1.27-1.873c-.539-.105-.8-.245-.933-.166a3.974,3.974,0,0,0-1.049.848c-1.86,2.328-3.693,4.678-5.53,7.024-.3.378-.565.776-.847,1.165C52.966,34.4,55.963,31.8,58.268,28.114Z"/></svg>