<svg xmlns="http://www.w3.org/2000/svg" data-name="Layer 1" viewBox="0 0 90 90" x="0px" y="0px">
  <path
    d="M18.176,37.909c4.355-.373,8.709-.35,13.039-1.018a112.546,112.546,0,0,1,14.153-1.349c1.984-.053,3.969-.269,5.943-.495,2.735-.312,5.452-.794,8.192-1.032,2.282-.2,4.593-.046,6.876-.234a28.07,28.07,0,0,1,8.586,1.006A31.467,31.467,0,0,0,83.109,36a1.129,1.129,0,0,1,.881.546,1.088,1.088,0,0,1-.233,1A10.269,10.269,0,0,1,81.5,39.082c-2.365,1.07-4.774,2.042-7.174,3.033a1.945,1.945,0,0,1-.888.138,37.116,37.116,0,0,0-7.988.6,7.929,7.929,0,0,1-.9.147c-4.453.014-8.8,1.083-13.228,1.332-1.833.1-3.67.27-5.5.247a74.035,74.035,0,0,0-8.695.585c-2.51.264-5.028.456-7.543.663-3.657.3-7.317.58-10.974.878-1.674.137-3.344.336-5.02.426a4.661,4.661,0,0,1-1.775-.3,1.82,1.82,0,0,1-1.27-1.748,18.732,18.732,0,0,0-.632-4.53c-.294-1.088.185-1.745,1.3-2a12.849,12.849,0,0,1,1.592-.2,4.336,4.336,0,0,0,1.361-.13A6.03,6.03,0,0,1,18.176,37.909ZM17.5,43.957l.106.178-.13-.158c-.039-.678-.043-1.361-.129-2.032-.075-.584.134-1.256-.607-1.686Q17.122,42.107,17.5,43.957Zm6.474-1.17c.143,1.812.241,1.93,1.48,1.965a7.284,7.284,0,0,0,.918-.02c2.207-.218,4.411-.471,6.62-.663,3.05-.264,6.1-.51,9.157-.713,1.373-.091,2.761.023,4.13-.1,4.268-.368,8.532-.8,12.8-1.216,1.292-.128,2.576-.329,3.868-.462,2.2-.227,4.412-.416,6.616-.644a12.346,12.346,0,0,0,1.576-.309.763.763,0,0,0,.653-.812,1.049,1.049,0,0,0-.679-1.088,2.96,2.96,0,0,0-1.135-.074c-3.121.313-6.257.533-9.356,1a97.428,97.428,0,0,1-16,1.157,105.052,105.052,0,0,0-16.244,1.1C26.941,42.119,25.532,42.474,23.976,42.787Zm20.637-3.58.014.244c2.975-.182,5.956-.3,8.924-.564,3.35-.295,6.692-.693,10.032-1.091,1.973-.235,3.938-.538,5.9-.857.234-.038.615-.414.586-.567a1.285,1.285,0,0,0-.562-.878,4.238,4.238,0,0,0-1.57-.23q-4.36.015-8.719.094c-.606.012-1.207.19-1.815.257-3.572.391-7.141.8-10.717,1.149-4.183.4-8.377.705-12.558,1.13-3.117.317-6.222.758-9.332,1.147a4.745,4.745,0,0,0-.9.152.97.97,0,0,0-.682,1.061.814.814,0,0,0,.892.832,15.759,15.759,0,0,0,1.585-.195c2.721-.392,5.43-.919,8.164-1.148C37.43,39.441,41.025,39.374,44.612,39.206Zm27.531-3.36A12.992,12.992,0,0,0,73.479,39.6a1.078,1.078,0,0,0,1.358.573c1.156-.365,2.293-.8,3.424-1.236a1.031,1.031,0,0,0,.645-1.1,1.01,1.01,0,0,0-.8-1C76.2,36.434,74.267,36.144,72.143,35.846ZM13.857,39.967c-.186.014-.491.02-.791.063-.983.142-1.264.507-1.189,1.559.038.53.1,1.059.172,1.585a2.073,2.073,0,0,0,2.869,1.966A1.021,1.021,0,0,0,15.8,44c-.091-.982-.205-1.965-.369-2.937C15.286,40.223,14.9,39.971,13.857,39.967Zm4.957-.455a5.261,5.261,0,0,0,.012,3.257c.16.613.153,1.325.836,1.781A9.031,9.031,0,0,0,18.814,39.512Zm2.571.4-.522.039a9.534,9.534,0,0,0,.01,1.307c.136.971.318,1.935.5,2.9.065.348.252.522.694.24A11.862,11.862,0,0,0,21.385,39.912Z" />
</svg>