<?xml version="1.0" encoding="UTF-8" standalone="no"?>
<svg
   version="1.1"
   x="0px"
   y="0px"
   viewBox="0 0 85 85"
   enable-background="new 0 0 85 85"
   xml:space="preserve"
   id="svg11"
   sodipodi:docname="share.svg"
   inkscape:version="1.2.2 (732a01da63, 2022-12-09)"
   xmlns:inkscape="http://www.inkscape.org/namespaces/inkscape"
   xmlns:sodipodi="http://sodipodi.sourceforge.net/DTD/sodipodi-0.dtd"
   xmlns="http://www.w3.org/2000/svg"
   xmlns:svg="http://www.w3.org/2000/svg"><defs
   id="defs15" /><sodipodi:namedview
   id="namedview13"
   pagecolor="#ffffff"
   bordercolor="#000000"
   borderopacity="0.25"
   inkscape:showpageshadow="2"
   inkscape:pageopacity="0.0"
   inkscape:pagecheckerboard="0"
   inkscape:deskcolor="#d1d1d1"
   showgrid="false"
   inkscape:zoom="6.8588235"
   inkscape:cx="22.45283"
   inkscape:cy="43.885077"
   inkscape:window-width="2560"
   inkscape:window-height="1369"
   inkscape:window-x="1432"
   inkscape:window-y="1003"
   inkscape:window-maximized="1"
   inkscape:current-layer="svg11" /><path
   fill-rule="evenodd"
   clip-rule="evenodd"
   d="M 73.605098,75.650374 C 84.872132,80.343682 74.729981,38.145508 71.715332,31.362305 70.564651,28.365212 66.927562,22.613569 65.922679,21.35771 62.656566,15.578413 55.618151,13.795682 46.573717,9.7761509 44.944458,9.0776712 35.41615,5.3617909 28.131085,6.3576578 19.689838,7.5115745 17.758143,13.830468 21.18474,17.938081 c 0,0 23.627217,0.427913 40.006965,17.881609 8.086312,12.334136 7.279148,26.828585 12.413393,39.830684 z M 19.962402,22.820312 c 3.015137,0.251954 5.778321,0 8.541992,0.753907 2.512207,0.502929 5.024415,1.004883 7.536622,1.758789 9.797851,2.763672 16.581054,5.27539 22.610839,13.566406 13.314453,18.841797 0.75293,36.427735 14.319336,39.442383 7.53711,1.758789 8.039063,-3.014648 8.290528,-8.792969 C 81.513183,61.760742 79.503418,44.174805 77.744629,37.140625 75.734863,30.860352 75.23291,29.352539 72.217773,24.579102 64.932129,12.771485 66.439453,15.033203 53.124512,7.7470704 47.346191,4.4814454 32.774902,-0.5429687 24.233398,2.4716798 19.962402,4.2294923 16.948242,7.2441407 15.44043,11.766602 c -3.014649,8.792968 1.7583,7.537109 4.521972,11.05371 z m 13.064454,31.655274 c 0.250488,0.25 1.004394,0.753906 1.004394,1.004883 l 0.250977,0.250976 0.251464,0.501953 c 0.502442,1.00586 -0.502441,-0.501953 0.250977,0.754883 3.266113,5.777344 3.769043,12.811524 1.256348,17.835938 -5.526856,9.797851 11.305176,7.286132 15.07373,4.271484 C 62.419922,70.553711 55.888184,51.459961 46.84375,40.40625 42.321777,35.381836 39.558594,31.111328 31.770019,28.598633 28.755371,27.59375 24.484863,26.086914 20.213867,27.091797 c -0.502441,0.250977 -1.758301,0.753906 -2.763183,1.004883 l -5.024903,2.511719 C 8.40625,33.37207 7.652832,35.381836 8.40625,40.658203 c 0.753418,5.527344 0.5024414,6.280273 4.772949,8.541016 4.522461,2.009765 7.53711,0.251953 11.556641,2.009765 3.51709,1.758789 6.783203,2.261719 9.043945,5.024414 0,-0.501953 0,-0.501953 -0.250977,-1.003906 z M 11.671875,38.145508 c 1.005371,-2.009766 1.005371,-2.260742 3.266113,-3.517578 19.903517,-14.218311 31.016123,10.660337 35.393439,19.66036 7.211893,17.916469 2.927535,22.555647 -10.27088,22.545694 3.015137,-8.791992 1.005371,-21.102539 -4.019531,-24.871093 -5.275879,-4.271485 -10.300293,-6.28125 -17.334473,-6.53125 -3.014649,0 -4.019531,-1.00586 -6.029297,-2.009766 -0.251465,-2.512695 -0.251465,-4.020508 -1.005371,-5.276367 z M 24.233398,66.53418 c 0.753418,3.265625 1.004883,9.797851 -2.26123,11.305664 C 11.65106,81.993219 7.1862853,72.276605 7.071889,62.286734 l 9.170428,-4.026991 c 1.556863,3.417916 4.042986,1.200021 5.227898,4.254905 1.758301,1.004883 2.260742,1.758789 2.763183,4.019532 z M 4.6376953,61.509766 c 1.0048828,-0.50293 -1.0048828,-1.004883 0.5024414,0 1.5078125,1.255859 -0.5024414,0 0.2509766,0.502929 0.5029297,-2.010742 0.7539063,0 0.2514648,-1.256836 -0.5024415,-1.256835 -0.5024414,0 -0.5024414,0 2.2612305,-4.270507 11.3051753,-7.285156 13.8173823,-6.280273 1.256348,1.506836 -0.250976,1.004883 2.009766,2.512695 1.758789,1.003907 5.527344,1.757813 7.034668,8.541016 C 31.267578,80.100586 21.972168,90.149414 8.6577148,78.09082 3.8842773,73.568359 2.6279297,66.785156 4.6376953,61.509766 Z"
   id="path9"
   sodipodi:nodetypes="ccccsccccccccccccccccccccccccccccccccccccccccccccccccccscccccc" />
</svg>
